#Comment line ignore any data following # character 
#Hierarchical Translation and Rotation (.htr) file 
[Header]	
#Header keywords are followed by a single value 
FileType HTR		#Single word string
DataType HTRS		#Translation followed by rotation and scale data
FileVersion 1		#integer
NumSegments 84		#integer
NumFrames 2		#integer
DataFrameRate 30		#integer, data frame rate in this file
EulerRotationOrder ZYX
CalibrationUnits mm
RotationUnits Degrees
GlobalAxisofGravity Y
BoneLengthAxis Y
ScaleFactor 1.00
[SegmentNames&Hierarchy]
#CHILD	PARENT
MASTER GLOBAL
root MASTER
chest root
L_mid_tent01 root
R_mid_tent01 root
spine01 root
Bip01_Neck chest
L_humerus chest
R_humerus chest
weapon_bone chest
Bip01_Head Bip01_Neck
eye_left_bone Bip01_Head
eye_right_bone Bip01_Head
L_forearm L_humerus
L_front_hand L_forearm
L_weapon_bone L_forearm
L_front_hand01_01 L_front_hand
L_front_hand02_01 L_front_hand
L_front_hand03_01 L_front_hand
L_front_hand01_02 L_front_hand01_01
L_front_hand02_02 L_front_hand02_01
L_front_hand03_02 L_front_hand03_01
R_forearm R_humerus
R_front_hand R_forearm
R_weapon_bone R_forearm
R_front_hand01_01 R_front_hand
R_front_hand02_01 R_front_hand
R_front_hand03_01 R_front_hand
R_front_hand01_02 R_front_hand01_01
R_front_hand02_02 R_front_hand02_01
R_front_hand03_02 R_front_hand03_01
null_rope01_connect L_mid_tent01
Rope1_Seg01 null_rope01_connect
Rope1_Seg02 Rope1_Seg01
Rope1_Seg03 Rope1_Seg02
Rope1_Seg04 Rope1_Seg03
Rope1_Seg05 Rope1_Seg04
Rope1_Seg06 Rope1_Seg05
Rope1_Seg07 Rope1_Seg06
Rope1_Seg09 Rope1_Seg07
L_mid_hand01 Rope1_Seg09
L_mid_hand02 Rope1_Seg09
L_mid_hand03 Rope1_Seg09
null_rope02_connect R_mid_tent01
Rope2_Seg01 null_rope02_connect
Rope2_Seg02 Rope2_Seg01
Rope2_Seg03 Rope2_Seg02
Rope2_Seg04 Rope2_Seg03
Rope2_Seg05 Rope2_Seg04
Rope2_Seg06 Rope2_Seg05
Rope2_Seg07 Rope2_Seg06
Rope2_Seg09 Rope2_Seg07
R_mid_hand01 Rope2_Seg09
R_mid_hand02 Rope2_Seg09
R_mid_hand03 Rope2_Seg09
spine02 spine01
spine03 spine02
pelvis spine03
null_rope03_connect pelvis
null_rope04_connect pelvis
Rope3_Seg01 null_rope03_connect
Rope3_Seg02 Rope3_Seg01
Rope3_Seg03 Rope3_Seg02
Rope3_Seg04 Rope3_Seg03
Rope3_Seg05 Rope3_Seg04
Rope3_Seg06 Rope3_Seg05
Rope3_Seg07 Rope3_Seg06
Rope3_Seg08 Rope3_Seg07
Rope3_Seg09 Rope3_Seg08
R_rear_hand01 Rope3_Seg09
R_rear_hand02 Rope3_Seg09
R_rear_hand03 Rope3_Seg09
Rope4_Seg01 null_rope04_connect
Rope4_Seg02 Rope4_Seg01
Rope4_Seg03 Rope4_Seg02
Rope4_Seg04 Rope4_Seg03
Rope4_Seg05 Rope4_Seg04
Rope4_Seg06 Rope4_Seg05
Rope4_Seg07 Rope4_Seg06
Rope4_Seg08 Rope4_Seg07
Rope4_Seg09 Rope4_Seg08
L_rear_hand01 Rope4_Seg09
L_rear_hand02 Rope4_Seg09
L_rear_hand03 Rope4_Seg09
[BasePosition]
#SegmentName Tx, Ty, Tz, Rx, Ry, Rz, BoneLength
MASTER 0.000000 0.000000 0.000000 -90.000000 0.000000 0.000000 10.000000 
root 0.000000 0.000000 0.000000 0.000000 0.000000 0.000000 10.000000 
chest 0.000000 0.000000 0.000000 0.000000 0.000000 0.000000 10.000000 
L_mid_tent01 0.000000 0.000000 0.000000 0.000000 0.000000 0.000000 10.000000 
R_mid_tent01 0.000000 0.000000 0.000000 0.000000 0.000000 0.000000 10.000000 
spine01 0.000000 0.000000 0.000000 0.000000 0.000000 0.000000 10.000000 
Bip01_Neck 0.000000 0.000000 0.000000 0.000000 0.000000 0.000000 10.000000 
L_humerus 0.000000 0.000000 0.000000 0.000000 0.000000 0.000000 10.000000 
R_humerus 0.000000 0.000000 0.000000 0.000000 0.000000 0.000000 10.000000 
weapon_bone 0.000000 0.000000 0.000000 0.000000 0.000000 0.000000 10.000000 
Bip01_Head 0.000000 0.000000 0.000000 0.000000 0.000000 0.000000 10.000000 
eye_left_bone 0.000000 0.000000 0.000000 0.000000 0.000000 0.000000 10.000000 
eye_right_bone 0.000000 0.000000 0.000000 0.000000 0.000000 0.000000 10.000000 
L_forearm 0.000000 0.000000 0.000000 0.000000 0.000000 0.000000 10.000000 
L_front_hand 0.000000 0.000000 0.000000 0.000000 0.000000 0.000000 10.000000 
L_weapon_bone 0.000000 0.000000 0.000000 0.000000 0.000000 0.000000 10.000000 
L_front_hand01_01 0.000000 0.000000 0.000000 0.000000 0.000000 0.000000 10.000000 
L_front_hand02_01 0.000000 0.000000 0.000000 0.000000 0.000000 0.000000 10.000000 
L_front_hand03_01 0.000000 0.000000 0.000000 0.000000 0.000000 0.000000 10.000000 
L_front_hand01_02 0.000000 0.000000 0.000000 0.000000 0.000000 0.000000 10.000000 
L_front_hand02_02 0.000000 0.000000 0.000000 0.000000 0.000000 0.000000 10.000000 
L_front_hand03_02 0.000000 0.000000 0.000000 0.000000 0.000000 0.000000 10.000000 
R_forearm 0.000000 0.000000 0.000000 0.000000 0.000000 0.000000 10.000000 
R_front_hand 0.000000 0.000000 0.000000 0.000000 0.000000 0.000000 10.000000 
R_weapon_bone 0.000000 0.000000 0.000000 0.000000 0.000000 0.000000 10.000000 
R_front_hand01_01 0.000000 0.000000 0.000000 0.000000 0.000000 0.000000 10.000000 
R_front_hand02_01 0.000000 0.000000 0.000000 0.000000 0.000000 0.000000 10.000000 
R_front_hand03_01 0.000000 0.000000 0.000000 0.000000 0.000000 0.000000 10.000000 
R_front_hand01_02 0.000000 0.000000 0.000000 0.000000 0.000000 0.000000 10.000000 
R_front_hand02_02 0.000000 0.000000 0.000000 0.000000 0.000000 0.000000 10.000000 
R_front_hand03_02 0.000000 0.000000 0.000000 0.000000 0.000000 0.000000 10.000000 
null_rope01_connect 0.000000 0.000000 0.000000 0.000000 0.000000 0.000000 10.000000 
Rope1_Seg01 0.000000 0.000000 0.000000 0.000000 0.000000 0.000000 10.000000 
Rope1_Seg02 0.000000 0.000000 0.000000 0.000000 0.000000 0.000000 10.000000 
Rope1_Seg03 0.000000 0.000000 0.000000 0.000000 0.000000 0.000000 10.000000 
Rope1_Seg04 0.000000 0.000000 0.000000 0.000000 0.000000 0.000000 10.000000 
Rope1_Seg05 0.000000 0.000000 0.000000 0.000000 0.000000 0.000000 10.000000 
Rope1_Seg06 0.000000 0.000000 0.000000 0.000000 0.000000 0.000000 10.000000 
Rope1_Seg07 0.000000 0.000000 0.000000 0.000000 0.000000 0.000000 10.000000 
Rope1_Seg09 0.000000 0.000000 0.000000 0.000000 0.000000 0.000000 10.000000 
L_mid_hand01 0.000000 0.000000 0.000000 0.000000 0.000000 0.000000 10.000000 
L_mid_hand02 0.000000 0.000000 0.000000 0.000000 0.000000 0.000000 10.000000 
L_mid_hand03 0.000000 0.000000 0.000000 0.000000 0.000000 0.000000 10.000000 
null_rope02_connect 0.000000 0.000000 0.000000 0.000000 0.000000 0.000000 10.000000 
Rope2_Seg01 0.000000 0.000000 0.000000 0.000000 0.000000 0.000000 10.000000 
Rope2_Seg02 0.000000 0.000000 0.000000 0.000000 0.000000 0.000000 10.000000 
Rope2_Seg03 0.000000 0.000000 0.000000 0.000000 0.000000 0.000000 10.000000 
Rope2_Seg04 0.000000 0.000000 0.000000 0.000000 0.000000 0.000000 10.000000 
Rope2_Seg05 0.000000 0.000000 0.000000 0.000000 0.000000 0.000000 10.000000 
Rope2_Seg06 0.000000 0.000000 0.000000 0.000000 0.000000 0.000000 10.000000 
Rope2_Seg07 0.000000 0.000000 0.000000 0.000000 0.000000 0.000000 10.000000 
Rope2_Seg09 0.000000 0.000000 0.000000 0.000000 0.000000 0.000000 10.000000 
R_mid_hand01 0.000000 0.000000 0.000000 0.000000 0.000000 0.000000 10.000000 
R_mid_hand02 0.000000 0.000000 0.000000 0.000000 0.000000 0.000000 10.000000 
R_mid_hand03 0.000000 0.000000 0.000000 0.000000 0.000000 0.000000 10.000000 
spine02 0.000000 0.000000 0.000000 0.000000 0.000000 0.000000 10.000000 
spine03 0.000000 0.000000 0.000000 0.000000 0.000000 0.000000 10.000000 
pelvis 0.000000 0.000000 0.000000 0.000000 0.000000 0.000000 10.000000 
null_rope03_connect 0.000000 0.000000 0.000000 0.000000 0.000000 0.000000 10.000000 
null_rope04_connect 0.000000 0.000000 0.000000 0.000000 0.000000 0.000000 10.000000 
Rope3_Seg01 0.000000 0.000000 0.000000 0.000000 0.000000 0.000000 10.000000 
Rope3_Seg02 0.000000 0.000000 0.000000 0.000000 0.000000 0.000000 10.000000 
Rope3_Seg03 0.000000 0.000000 0.000000 0.000000 0.000000 0.000000 10.000000 
Rope3_Seg04 0.000000 0.000000 0.000000 0.000000 0.000000 0.000000 10.000000 
Rope3_Seg05 0.000000 0.000000 0.000000 0.000000 0.000000 0.000000 10.000000 
Rope3_Seg06 0.000000 0.000000 0.000000 0.000000 0.000000 0.000000 10.000000 
Rope3_Seg07 0.000000 0.000000 0.000000 0.000000 0.000000 0.000000 10.000000 
Rope3_Seg08 0.000000 0.000000 0.000000 0.000000 0.000000 0.000000 10.000000 
Rope3_Seg09 0.000000 0.000000 0.000000 0.000000 0.000000 0.000000 10.000000 
R_rear_hand01 0.000000 0.000000 0.000000 0.000000 0.000000 0.000000 10.000000 
R_rear_hand02 0.000000 0.000000 0.000000 0.000000 0.000000 0.000000 10.000000 
R_rear_hand03 0.000000 0.000000 0.000000 0.000000 0.000000 0.000000 10.000000 
Rope4_Seg01 0.000000 0.000000 0.000000 0.000000 0.000000 0.000000 10.000000 
Rope4_Seg02 0.000000 0.000000 0.000000 0.000000 0.000000 0.000000 10.000000 
Rope4_Seg03 0.000000 0.000000 0.000000 0.000000 0.000000 0.000000 10.000000 
Rope4_Seg04 0.000000 0.000000 0.000000 0.000000 0.000000 0.000000 10.000000 
Rope4_Seg05 0.000000 0.000000 0.000000 0.000000 0.000000 0.000000 10.000000 
Rope4_Seg06 0.000000 0.000000 0.000000 0.000000 0.000000 0.000000 10.000000 
Rope4_Seg07 0.000000 0.000000 0.000000 0.000000 0.000000 0.000000 10.000000 
Rope4_Seg08 0.000000 0.000000 0.000000 0.000000 0.000000 0.000000 10.000000 
Rope4_Seg09 0.000000 0.000000 0.000000 0.000000 0.000000 0.000000 10.000000 
L_rear_hand01 0.000000 0.000000 0.000000 0.000000 0.000000 0.000000 10.000000 
L_rear_hand02 0.000000 0.000000 0.000000 0.000000 0.000000 0.000000 10.000000 
L_rear_hand03 0.000000 0.000000 0.000000 0.000000 0.000000 0.000000 10.000000 
#Beginning of Data. Separated by tabs
#Fr	Tx	Ty	Tz	Rx	Ry	Rz	SF
[MASTER]
23 -2611.538818 -0.000394 0.000000 0.001660 0.001660 0.001660 2611.538818
24 -2735.316895 -0.000413 0.000000 0.001660 0.001660 0.001660 2735.316895
[root]
23 -16.502380 -62.822109 1474.735107 -109.631050 -27.676699 -104.458954 1476.164917
24 -16.502380 -62.822109 1488.303345 -98.761192 -27.677923 -106.122101 1489.719971
[chest]
23 -84.512650 -34.090519 0.000000 -44.954041 4.998620 -175.489655 91.129311
24 -84.512650 -34.090519 0.000000 -31.705051 3.796568 -176.840714 91.129311
[L_mid_tent01]
23 27.322435 22.164486 -250.065002 -6.744036 32.845634 65.705795 252.527786
24 27.299500 22.177656 -249.917603 3.862628 36.229202 81.347610 252.380493
[R_mid_tent01]
23 23.228794 24.509907 226.238495 -175.776611 -44.403133 61.112537 228.744751
24 23.228794 24.509907 226.238495 160.432037 -47.061241 87.899765 228.744751
[spine01]
23 -0.361383 -0.195265 0.000000 9.556249 0.416428 12.128875 0.410763
24 -0.361383 -0.195265 0.000000 0.829142 1.400018 15.725574 0.410763
[Bip01_Neck]
23 165.484543 71.581718 0.000119 175.896118 1.177290 24.871183 180.302734
24 165.484543 71.581718 0.000119 175.896118 1.177290 24.871183 180.302734
[L_humerus]
23 -13.983130 -135.272980 -120.471481 170.940796 81.564224 -99.189163 181.680161
24 -13.983130 -135.272980 -120.471481 170.940796 81.564224 -99.189163 181.680161
[R_humerus]
23 -13.983309 -135.273102 125.287651 -159.666046 -68.957870 -101.166077 184.909012
24 -13.983309 -135.273102 125.287651 -159.666046 -68.957870 -101.166077 184.909012
[weapon_bone]
23 235.964890 -300.705902 0.000000 0.000000 -89.951546 -128.212341 382.234833
24 235.964890 -300.705902 0.000000 0.000000 -89.951546 -128.212341 382.234833
[Bip01_Head]
23 261.355865 108.959618 -2.864095 2.248029 5.843377 -62.458344 283.173615
24 261.355865 108.959633 -2.864088 2.248029 5.843377 -62.458344 283.173615
[eye_left_bone]
23 -24.626970 125.451866 -64.772606 0.000000 -90.000000 -99.840431 143.318359
24 -24.626970 125.451866 -64.772606 0.000000 -90.000000 -99.840431 143.318359
[eye_right_bone]
23 -24.626970 125.451866 64.327362 0.000000 -89.960434 80.159386 143.117676
24 -24.626970 125.451866 64.327362 0.000000 -89.960434 80.159386 143.117676
[L_forearm]
23 322.776093 0.000000 -0.000119 0.000471 0.002300 -66.859398 322.776093
24 322.776093 0.000000 -0.000119 0.000471 0.002300 -66.859398 322.776093
[L_front_hand]
23 241.149185 -0.042021 -3.300071 -178.667953 -1.835447 -27.422350 241.171753
24 241.149185 -0.042021 -3.300071 -178.667953 -1.835447 -27.422350 241.171753
[L_weapon_bone]
23 156.183838 0.000000 0.000000 0.001660 0.001660 0.001660 156.183838
24 156.183838 0.000000 0.000000 0.001660 0.001660 0.001660 156.183838
[L_front_hand01_01]
23 86.095154 20.947098 -0.655860 -0.039595 -0.596831 41.566479 88.609184
24 86.095154 20.947098 -0.655860 -0.080858 -0.591944 45.625771 88.609184
[L_front_hand02_01]
23 86.935165 -11.437475 24.513514 124.374413 -36.729134 -22.597244 91.046425
24 86.935165 -11.437475 24.513514 126.232201 -40.040043 -25.588293 91.046425
[L_front_hand03_01]
23 86.637497 -14.123976 -20.424902 -125.481544 35.188984 -25.002670 90.126129
24 86.637497 -14.123976 -20.424902 -127.285873 38.455624 -28.007551 90.126129
[L_front_hand01_02]
23 71.020905 -0.000179 0.000030 0.000387 0.002315 -70.998672 71.020905
24 71.020905 -0.000179 0.000030 0.000299 0.002328 -75.372398 71.020905
[L_front_hand02_02]
23 71.020927 -0.000119 0.000060 0.000387 0.002315 -70.998672 71.020927
24 71.020927 -0.000119 0.000060 0.000299 0.002328 -75.372398 71.020927
[L_front_hand03_02]
23 71.020905 -0.000060 0.000060 0.000387 0.002315 -70.998672 71.020905
24 71.020905 -0.000060 0.000060 0.000299 0.002328 -75.372398 71.020905
[R_forearm]
23 322.776428 -0.000060 0.000030 0.199694 -0.075621 -69.903069 322.776428
24 322.776428 -0.000060 0.000030 0.199694 -0.075621 -69.903069 322.776428
[R_front_hand]
23 238.847015 -0.006795 2.210259 -1.531694 0.790216 -51.443054 238.857239
24 238.847015 -0.006795 2.210259 -1.531694 0.790216 -51.443054 238.857239
[R_weapon_bone]
23 155.664093 0.002503 -0.000030 0.003487 0.001180 -90.988930 155.664078
24 155.664093 0.002503 -0.000030 0.003487 0.001180 -90.988930 155.664078
[R_front_hand01_01]
23 87.624611 14.231146 22.918642 -124.437439 -36.850163 22.807629 91.683487
24 87.624611 14.231146 22.918642 -126.306305 -40.160236 25.811508 91.683487
[R_front_hand02_01]
23 89.356956 14.367283 -19.491137 125.690239 35.556717 25.577541 92.579636
24 89.356956 14.367283 -19.491137 127.524292 38.813595 28.615982 92.579636
[R_front_hand03_01]
23 87.286232 -22.307278 -0.143439 -0.104619 -0.440886 -41.953770 90.091743
24 87.286232 -22.307278 -0.143439 -0.071417 -0.447620 -46.013149 90.091743
[R_front_hand01_02]
23 71.020905 0.000060 0.000119 0.002315 0.000387 70.996666 71.020905
24 71.020905 0.000060 0.000119 0.002328 0.000299 75.370369 71.020905
[R_front_hand02_02]
23 71.020844 -0.000030 -0.000119 0.002315 0.000387 70.996666 71.020836
24 71.020844 -0.000030 -0.000119 0.002328 0.000299 75.370369 71.020836
[R_front_hand03_02]
23 71.020905 0.000000 0.000030 0.002315 0.000387 70.996666 71.020905
24 71.020905 0.000000 0.000030 0.002328 0.000299 75.370369 71.020905
[null_rope01_connect]
23 328.732483 0.000000 -0.000238 -136.881027 -27.954599 -177.887390 328.732483
24 328.732483 0.000000 -0.000238 -130.208435 -33.595730 163.269318 328.732483
[Rope1_Seg01]
23 0.000000 0.000000 0.000000 113.018524 53.112583 136.522095 0.000000
24 0.000000 0.000000 0.000000 112.568085 57.659065 134.772324 0.000000
[Rope1_Seg02]
23 139.999863 -0.000179 0.000000 -6.770874 -24.976065 29.186016 139.999863
24 139.999863 -0.000179 0.000000 -6.864023 -26.721498 26.582031 139.999863
[Rope1_Seg03]
23 139.999924 0.000060 -0.000060 -2.320424 -9.753498 7.154491 139.999924
24 139.999924 0.000060 -0.000060 -2.652524 -11.374272 8.814771 139.999924
[Rope1_Seg04]
23 139.999924 -0.000060 -0.000119 -10.034799 -16.175138 6.748182 139.999924
24 139.999924 -0.000060 -0.000119 -8.249879 -15.305293 8.842341 139.999924
[Rope1_Seg05]
23 139.999832 0.000119 -0.000060 -10.807101 -10.456670 2.649702 139.999832
24 139.999832 0.000119 -0.000060 -7.767915 -8.688764 3.695184 139.999832
[Rope1_Seg06]
23 139.999954 0.000119 -0.000060 -9.652630 -6.436623 0.500981 139.999954
24 139.999954 0.000119 -0.000060 -6.924879 -5.295344 1.507756 139.999954
[Rope1_Seg07]
23 139.999985 0.000060 0.000000 -8.325615 -4.267256 -0.387274 139.999985
24 139.999985 0.000060 0.000000 -6.124691 -3.554615 0.563534 139.999985
[Rope1_Seg09]
23 121.602913 0.000119 -0.000089 -89.793175 -1.359789 0.847147 121.602913
24 121.602913 0.000119 -0.000089 -89.793175 -1.359789 0.847147 121.602913
[L_mid_hand01]
23 103.859421 1.038730 8.195221 105.579529 -22.648388 -6.659525 104.187431
24 103.859421 1.038730 8.195221 105.620987 -22.988335 -6.761933 104.187431
[L_mid_hand02]
23 105.572853 -4.139662 -10.864139 -139.393402 20.098043 -21.242613 106.211075
24 105.572853 -4.139662 -10.864139 -139.491974 20.327143 -21.528740 106.211075
[L_mid_hand03]
23 104.641464 17.579376 -3.913581 -17.397032 7.151557 25.563231 106.179977
24 104.641464 17.579376 -3.913581 -17.354424 7.254999 25.905664 106.179977
[null_rope02_connect]
23 328.732849 0.000179 -0.000119 -138.376251 74.424919 -11.760848 328.732849
24 328.732849 0.000179 -0.000119 -133.555145 60.543892 6.923680 328.732849
[Rope2_Seg01]
23 -0.000043 0.000134 0.000153 107.328545 64.740532 -131.020645 0.000207
24 -0.000041 0.000134 0.000153 166.001587 69.758446 -74.753136 0.000207
[Rope2_Seg02]
23 139.999741 -0.000060 -0.000119 8.270129 -23.736374 -18.487185 139.999756
24 139.999741 -0.000060 -0.000119 17.930119 -31.224648 -20.680981 139.999756
[Rope2_Seg03]
23 140.000107 0.000030 0.000000 0.817935 -16.688404 -13.293893 140.000107
24 140.000107 0.000030 0.000000 1.896308 -22.733040 -7.528246 140.000107
[Rope2_Seg04]
23 139.999802 0.000000 -0.000060 -3.901386 -23.767197 -6.980601 139.999802
24 139.999802 0.000000 -0.000060 -3.765421 -24.367550 -3.068498 139.999802
[Rope2_Seg05]
23 139.999985 -0.000060 0.000119 -6.335219 -14.828062 -4.454554 139.999985
24 139.999985 -0.000060 0.000119 -3.907215 -10.223099 -2.058491 139.999985
[Rope2_Seg06]
23 139.999893 -0.000030 -0.000119 -4.371727 -5.947558 -2.997858 139.999893
24 139.999893 -0.000030 -0.000119 -2.699548 -4.897025 -1.437720 139.999893
[Rope2_Seg07]
23 139.999893 0.000060 -0.000060 -3.085787 -3.374198 -2.045783 139.999893
24 139.999893 0.000060 -0.000060 -1.946393 -2.939372 -1.017183 139.999893
[Rope2_Seg09]
23 121.338966 0.000089 -0.000060 33.793236 -1.359788 -0.847141 121.338966
24 121.338966 0.000089 -0.000060 33.793236 -1.359788 -0.847141 121.338966
[R_mid_hand01]
23 104.680779 11.144459 -10.335981 -44.145947 19.560667 21.759449 105.778534
24 104.680779 11.144459 -10.335981 -44.070736 19.764444 21.986286 105.778534
[R_mid_hand02]
23 104.070427 2.443552 8.231699 74.186195 -24.483601 7.232481 104.424065
24 104.070427 2.443552 8.231699 74.148849 -24.768806 7.320621 104.424065
[R_mid_hand03]
23 106.028137 -11.221827 -5.996406 -166.520828 8.347037 -28.494413 106.788818
24 106.028137 -11.221827 -5.996406 -166.566208 8.416404 -28.789036 106.788818
[spine02]
23 129.756927 0.001550 0.000119 -0.245322 -4.052060 -4.355547 129.756927
24 129.756927 0.001550 0.000119 -0.245322 -4.052060 -4.355547 129.756927
[spine03]
23 78.613869 0.087299 -4.898964 0.369659 4.260734 -4.885720 78.766411
24 78.613876 0.087292 -4.898972 0.369659 4.260734 -4.885720 78.766418
[pelvis]
23 169.435242 0.051022 0.000000 -0.010007 -0.191417 -1.897554 169.435257
24 169.435242 0.051022 0.000000 -0.010007 -0.191417 -1.897554 169.435257
[null_rope03_connect]
23 -1.257226 -2.466202 137.391083 -110.253876 -67.472023 -133.575623 137.418976
24 -1.257226 -2.466202 137.391083 -106.701897 -67.894989 -140.948608 137.418976
[null_rope04_connect]
23 -1.259640 -2.480268 -137.844437 -110.253876 -67.472023 -133.575623 137.872513
24 -1.259640 -2.480268 -137.844437 -106.701897 -67.894989 -140.948608 137.872513
[Rope3_Seg01]
23 0.000266 0.000000 0.000018 -148.208160 -40.684883 -55.860657 0.000267
24 0.000279 0.000000 0.000012 -140.357895 -36.903824 -66.060219 0.000280
[Rope3_Seg02]
23 139.999924 -0.000119 0.000060 1.981862 -11.891730 -18.937529 139.999924
24 139.999924 -0.000119 0.000060 -1.297346 -10.957878 -26.910336 139.999924
[Rope3_Seg03]
23 139.999924 -0.000119 0.000119 -131.939453 -19.701818 -41.564384 139.999924
24 139.999924 -0.000119 0.000119 -98.667381 -9.809539 -49.751667 139.999924
[Rope3_Seg04]
23 139.999924 0.000119 0.000000 -35.254536 35.503414 9.179671 139.999924
24 139.999924 0.000119 0.000000 -52.714634 34.258522 -11.267875 139.999924
[Rope3_Seg05]
23 139.999924 -0.000238 0.000060 -2.349981 19.988411 16.521021 139.999924
24 139.999924 -0.000238 0.000060 -6.738358 21.927275 9.691863 139.999924
[Rope3_Seg06]
23 139.999893 -0.000119 -0.000060 0.170037 6.231681 6.458178 139.999893
24 139.999893 -0.000119 -0.000060 -0.419223 6.138344 4.442792 139.999893
[Rope3_Seg07]
23 139.999771 0.000060 -0.000119 0.431729 3.047228 3.328407 139.999771
24 139.999771 0.000060 -0.000119 0.172780 3.317717 2.490628 139.999771
[Rope3_Seg08]
23 139.999985 -0.000060 0.000000 0.498456 1.690411 1.819423 139.999985
24 139.999985 -0.000060 0.000000 0.375370 1.856924 1.387810 139.999985
[Rope3_Seg09]
23 90.185997 -0.000179 -0.000060 89.793228 -1.359877 -0.847183 90.185997
24 90.185997 -0.000179 -0.000060 89.793228 -1.359877 -0.847183 90.185997
[R_rear_hand01]
23 103.366196 -6.073594 -10.757982 -159.959000 14.681531 -24.191771 104.101845
24 103.366196 -6.073594 -10.757982 -160.090088 14.865479 -24.717995 104.101845
[R_rear_hand02]
23 100.509819 12.039542 -7.992327 -35.841637 15.831045 23.713284 101.543350
24 100.509819 12.039542 -7.992327 -35.711582 16.148796 24.170401 101.543350
[R_rear_hand03]
23 101.539970 5.215704 5.435467 83.722893 -24.961674 6.520506 101.819031
24 101.539970 5.215704 5.435467 83.699936 -25.497597 6.583542 101.819031
[Rope4_Seg01]
23 -0.000011 -0.000009 -0.000153 70.991768 -39.133308 -135.452118 0.000153
24 -0.000010 -0.000006 -0.000153 62.352905 -29.778017 -131.817749 0.000153
[Rope4_Seg02]
23 139.999985 0.000060 0.000119 21.935129 -23.954533 28.072779 139.999985
24 139.999985 0.000060 0.000119 27.144732 -36.311615 31.792570 139.999985
[Rope4_Seg03]
23 139.999924 0.000000 -0.000238 19.109037 -14.613969 55.547440 139.999924
24 139.999924 0.000000 -0.000238 22.435566 -13.700055 50.787029 139.999924
[Rope4_Seg04]
23 139.999985 0.000000 0.000119 2.471176 5.018717 19.589117 139.999985
24 139.999985 0.000000 0.000119 3.674092 4.932199 19.216974 139.999985
[Rope4_Seg05]
23 139.999802 -0.000060 -0.000119 -0.372265 7.401069 15.622881 139.999802
24 139.999802 -0.000060 -0.000119 0.307401 7.371407 21.250166 139.999802
[Rope4_Seg06]
23 139.999924 0.000000 0.000060 -2.058456 4.604041 10.552951 139.999924
24 139.999924 0.000000 0.000060 -2.194981 3.851065 11.872561 139.999924
[Rope4_Seg07]
23 139.999802 0.000000 0.000000 -1.913931 2.103326 6.009875 139.999802
24 139.999802 0.000000 0.000000 -1.926232 1.745271 6.456295 139.999802
[Rope4_Seg08]
23 139.999924 0.000000 0.000119 -2.923722 1.101678 3.536336 139.999924
24 139.999924 0.000000 0.000119 -2.890461 0.861920 3.686162 139.999924
[Rope4_Seg09]
23 90.185791 0.000060 0.000060 -135.617828 2.228885 0.850567 90.185791
24 90.185791 0.000060 0.000060 -135.617828 2.228885 0.850567 90.185791
[L_rear_hand01]
23 101.696655 -8.392275 -7.654577 -36.362705 -14.425787 158.284409 102.329041
24 101.696655 -8.392275 -7.654577 -36.242058 -14.765300 157.809067 102.329041
[L_rear_hand02]
23 102.726799 -1.568258 5.773216 83.841537 22.586632 173.765472 102.900848
24 102.726799 -1.568258 5.773216 83.814362 23.151863 173.698151 102.900848
[L_rear_hand03]
23 104.552910 9.721220 -10.420293 -159.389603 -13.851099 -158.113632 105.519653
24 104.552910 9.721220 -10.420293 -159.518845 -14.052428 -157.569275 105.519653
